<svg xmlns="http://www.w3.org/2000/svg" viewBox="0 0 24 24" fill="currentColor" aria-hidden="true">
  <path d="M12 .5C5.65.5.5 5.65.5 12a11.5 11.5 0 007.88 10.96c.58.1.79-.25.79-.56 0-.28-.01-1.02-.02-2-3.2.7-3.88-1.54-3.88-1.54-.53-1.36-1.3-1.72-1.3-1.72-1.06-.73.08-.72.08-.72 1.18.08 1.8 1.21 1.8 1.21 1.04 1.78 2.72 1.27 3.38.97.1-.75.4-1.27.72-1.56-2.56-.29-5.26-1.28-5.26-5.7 0-1.26.45-2.29 1.2-3.1-.12-.3-.52-1.52.11-3.17 0 0 .98-.31 3.22 1.18a11.11 11.11 0 015.86 0c2.24-1.5 3.22-1.18 3.22-1.18.63 1.65.23 2.87.11 3.17.75.81 1.2 1.84 1.2 3.1 0 4.43-2.71 5.4-5.29 5.68.41.36.78 1.08.78 2.18 0 1.57-.01 2.84-.01 3.23 0 .31.21.67.8.56A11.5 11.5 0 0023.5 12C23.5 5.65 18.35.5 12 .5z"></path>
</svg>
