<svg xmlns="http://www.w3.org/2000/svg" viewBox="0 0 24 24" fill="currentColor" aria-hidden="true">
  <path d="M22 5.92c-.66.29-1.37.48-2.13.57.77-.46 1.36-1.18 1.64-2.04-.72.43-1.52.74-2.37.9C18.9 4.2 17.6 3.5 16.17 3.5c-2.44 0-4.42 1.98-4.42 4.42 0 .35.04.7.12 1.03-3.67-.18-6.93-1.94-9.11-4.61-.38.66-.6 1.43-.6 2.25 0 1.55.79 2.92 1.99 3.73-.61-.02-1.19-.19-1.7-.47v.05c0 2.16 1.54 3.96 3.58 4.37-.37.1-.75.15-1.15.15-.28 0-.55-.03-.81-.07.55 1.72 2.15 2.97 4.04 3-.93.73-2.1 1.16-3.38 1.16-.22 0-.44-.01-.65-.04 1.21.78 2.64 1.23 4.18 1.23 5.02 0 7.77-4.16 7.77-7.76v-.35c.53-.38.98-.86 1.34-1.4-.6.27-1.24.45-1.91.53.69-.42 1.22-1.1 1.47-1.9z"></path>
</svg>
