<svg xmlns="http://www.w3.org/2000/svg" viewBox="0 0 24 24" fill="currentColor" aria-hidden="true">
  <path d="M12.04 2C6.5 2 2 6.48 2 12c0 1.9.5 3.7 1.44 5.26L2 22l4.92-1.31A9.95 9.95 0 0012.04 22c5.54 0 10.04-4.48 10.04-10S17.58 2 12.04 2zm5.37 13.03c-.26.73-1.5 1.6-2.07 1.71-.53.1-1.18.14-3.22-.44-2.1-.6-3.48-1.96-4.03-2.78-.52-.8-.48-1.17-.28-1.7.18-.48 1.02-1.58 1.52-2.01.25-.22.33-.36.5-.6.13-.18.07-.33-.04-.48-.11-.14-.98-2.36-1.34-3.22-.35-.86-.71-.74-1-.75-.23-.02-.5-.02-.77-.02-.28 0-.72.06-1.1.46-.38.4-1.45 1.42-1.45 3.46 0 2.03 1.48 4 1.69 4.28.22.28 2.92 4.72 7.12 6.28 4.2 1.56 4.2.93 4.96.87.76-.06 2.45-.99 2.8-3.01.35-2.02-.79-3.8-1.14-4.07z"></path>
</svg>
